<svg style="fill-rule:evenodd;clip-rule:evenodd;stroke-linejoin:round;stroke-miterlimit:2" viewBox="0 0 512 512" xml:space="preserve" xmlns="http://www.w3.org/2000/svg"><path d="m255.022 511.998.229.001h-.079l-.15-.001zm1.806.001h-.079l.229-.001-.15.001zm-2.588-.005.247.001h-.142l-.105-.001zm3.415.001h-.142l.247-.001-.105.001zm-4.169-.007.165.001-.132-.001h-.033zm4.995 0-.132.001.165-.001h-.033zm.826-.009-.058.001.223-.003-.165.002zm-6.779-.002.223.003-.058-.001-.165-.002zm7.604-.01-.135.002.275-.004-.14.002zm-8.404-.002.275.004-.135-.002-.14-.002zm9.228-.012-.182.003.254-.005-.072.002zm-9.984-.002.254.005-.182-.003-.072-.002zm-.937-.019.225.005-.04-.001-.185-.004zm11.745.004-.04.001.225-.005-.185.004zm-12.567-.025.309.008-.125-.003-.184-.005zm13.39.005-.125.003.309-.008-.184.005zm.823-.022-.201.006.316-.009-.115.003zm-14.967-.003.316.009-.201-.006-.115-.003zm-.72-.022.225.007-.212-.007-.194-.006.181.006zm16.509 0-.212.007.225-.007.181-.006-.194.006zm.821-.027-.112.004.345-.012-.233.008zm-18.371-.008.345.012-.112-.004-.233-.008zm-.749-.028.362.013-.201-.007-.161-.006zm19.941.006-.201.007.362-.013-.161.006zm-20.676-.036.354.015-.277-.011-.077-.004zm21.495.004-.277.011.354-.015-.077.004zm-22.525-.049.38.017-.093-.003-.287-.014zm23.345.014-.093.003.38-.017-.287.014zm-24.084-.048.394.018-.186-.008-.208-.01zm24.902.01-.186.008.394-.018-.208.01zm-25.63-.047.397.02-.279-.013-.118-.007zm26.448.007-.279.013.397-.02-.118.007zm.818-.043-.362.019.321-.017.378-.021-.337.019zm-27.925.002.321.017-.362-.019-.337-.019.378.021zm28.741-.048-.16.009.406-.023-.246.014zm-29.844-.014.406.023-.16-.009-.246-.014zm-.722-.043.405.024-.253-.014-.152-.01zm31.382.01-.253.014.405-.024-.152.01zm-32.071-.053.365.023-.34-.021-.342-.022.317.02zm32.887.002-.34.021.365-.023.317-.02-.342.022zm.814-.053-.122.008.387-.026-.265.018zm-34.755-.018.387.026-.122-.008-.265-.018zm-.721-.05.38.027-.208-.014-.172-.013zm36.29.013-.208.014.38-.027-.172.013zm-37.009-.064.349.025-.271-.019-.078-.006zm37.822.006-.271.019.349-.025-.078.006zm-38.789-.079.306.023-.074-.005-.232-.018zm39.602.018-.074.005.306-.023-.232.018zm.811-.063-.146.011.311-.025-.165.014zm-41.157-.014.311.025-.146-.011-.165-.014zm-.725-.059.264.022-.186-.015-.078-.007zm42.694.007-.186.015.264-.022-.078.007zm-43.492-.074.079.007-.013-.001-.066-.006zm44.302.006-.013.001.079-.007-.066.006zm.81-.071-.072.006.181-.016-.109.01zm-45.965-.01.181.016-.072-.006-.109-.01zm-.75-.068.135.013-.084-.008-.051-.005zm47.523.005-.084.008.135-.013-.051.005zM216 508.887C93.681 489.661 0 383.684 0 256 0 114.71 114.71 0 256 0c141.29 0 256 114.71 256 256 0 127.684-93.681 233.661-216 252.887V330h59.65L367 256h-71v-48.021c0-20.245 9.918-39.979 41.719-39.979H370v-63s-29.296-5-57.305-5C254.219 100 216 135.44 216 199.6V256h-65v74h65v178.887z"/></svg>